<svg width="186" height="58" viewBox="0 0 186 58" fill="none" xmlns="http://www.w3.org/2000/svg">
<path fill-rule="evenodd" clip-rule="evenodd" d="M7.927 50.3688V55.1534C7.927 55.5312 8.00238 55.888 8.15391 56.2224C8.29423 56.5575 8.49952 56.8598 8.74823 57.1076C8.996 57.3561 9.29828 57.5614 9.63343 57.7017C9.96858 57.8532 10.3246 57.9286 10.7022 57.9286C11.0807 57.9286 11.4479 57.8532 11.7823 57.7129C12.1174 57.5726 12.4085 57.3673 12.6572 57.1188C12.9058 56.8702 13.111 56.5679 13.2618 56.2336C13.4021 55.8984 13.4783 55.5424 13.4783 55.1534V50.3688H12.2361V55.1421C12.2361 55.3588 12.1928 55.5641 12.1174 55.7469C12.0308 55.9305 11.9226 56.0925 11.7823 56.2336C11.642 56.3739 11.48 56.4925 11.2964 56.5679C11.1128 56.6433 10.9075 56.6866 10.7022 56.6762C10.4761 56.6762 10.2709 56.6329 10.0873 56.5463C9.89242 56.4597 9.73044 56.341 9.60134 56.2007C9.46102 56.0604 9.36322 55.8984 9.28784 55.7148C9.21247 55.5312 9.16917 55.3474 9.16917 55.1421L9.18023 50.3688H7.92765H7.927ZM20.6155 50.3688H17.2894V57.9286H18.5315V55.1967H20.6155C20.9507 55.1967 21.2634 55.1317 21.5552 55.0018C21.8471 54.8832 22.0949 54.7108 22.3218 54.4839C22.5383 54.2674 22.7106 54.0084 22.8405 53.7165C22.9592 53.4255 23.0242 53.1232 23.0242 52.788C23.0242 52.4537 22.9592 52.1402 22.8405 51.8491C22.7106 51.5571 22.5383 51.2981 22.3218 51.0712C22.0949 50.8547 21.8471 50.6823 21.5552 50.5524C21.2634 50.4338 20.9507 50.3688 20.6155 50.3688ZM20.6155 53.9547H18.5315V51.6108H20.6155C20.7775 51.6108 20.929 51.6439 21.0693 51.6974C21.2097 51.7625 21.3283 51.8491 21.4366 51.9566C21.544 52.0648 21.6306 52.1835 21.6956 52.3238C21.7493 52.4641 21.7821 52.6261 21.7821 52.788C21.7821 52.95 21.7493 53.0903 21.6956 53.2306C21.6306 53.3717 21.544 53.5008 21.4366 53.6091C21.3283 53.7165 21.2097 53.8031 21.0693 53.8576C20.929 53.9218 20.7775 53.9547 20.6155 53.9547ZM27.7422 56.6762V50.3688H26.501V57.9286H32.041V56.6762H27.7422ZM38.2825 50.3688C37.7966 50.3688 37.3323 50.4666 36.9106 50.6502C36.4792 50.8339 36.1007 51.0928 35.788 51.4056C35.4641 51.7295 35.2041 52.1081 35.0205 52.529C34.8369 52.9612 34.7399 53.4255 34.7399 53.9114V54.386C34.7399 54.8727 34.8369 55.337 35.0205 55.7581C35.2041 56.1903 35.4641 56.5679 35.788 56.8814C36.1007 57.2054 36.4792 57.4643 36.9106 57.648C37.3323 57.8316 37.7966 57.9286 38.2825 57.9286C38.7684 57.9286 39.2328 57.8316 39.6649 57.648C40.0859 57.4643 40.4635 57.2054 40.7875 56.8814C41.101 56.5679 41.36 56.1903 41.5436 55.7581C41.7272 55.337 41.8242 54.8727 41.8242 54.386V53.9114C41.8242 53.4255 41.7272 52.9612 41.5436 52.529C41.36 52.1081 41.101 51.7295 40.7875 51.4056C40.4635 51.0928 40.0859 50.8339 39.6649 50.6502C39.2328 50.4666 38.7684 50.3688 38.2825 50.3688ZM40.5718 53.9114V54.386C40.5718 54.6995 40.5069 55.0018 40.3882 55.272C40.2695 55.5528 40.1075 55.8014 39.9023 56.0067C39.697 56.2119 39.4484 56.3739 39.179 56.4925C38.8974 56.6112 38.5952 56.6762 38.2825 56.6762C37.969 56.6762 37.6667 56.6112 37.3965 56.4925C37.1158 56.3739 36.8673 56.2119 36.6628 56.0067C36.4575 55.8014 36.2843 55.5528 36.1657 55.272C36.047 55.0018 35.9821 54.6995 35.9821 54.386V53.9114C35.9821 53.5979 36.047 53.2956 36.1657 53.015C36.2843 52.7447 36.4575 52.497 36.6628 52.2917C36.8673 52.0865 37.1158 51.9133 37.3965 51.7944C37.6667 51.6758 37.969 51.6108 38.2825 51.6108C38.5952 51.6108 38.8974 51.6758 39.179 51.7944C39.4484 51.9133 39.697 52.0865 39.9023 52.2917C40.1075 52.497 40.2695 52.7447 40.3882 53.015C40.5069 53.2956 40.5718 53.5979 40.5718 53.9114ZM52.3316 57.9286L50.8844 54.7749L48.8436 50.3688H47.8068L45.3772 55.6394L45.0637 56.2977L44.3188 57.9286H45.6899L46.3378 56.5359H50.3117L50.9605 57.9286H52.3316ZM49.74 55.2937H46.9104L47.2993 54.4293L48.3248 52.2155L49.74 55.2937ZM58.5733 50.3688H55.5166V57.9286H58.5733C59.1129 57.9286 59.5883 57.8204 59.9876 57.6047C60.387 57.389 60.7325 57.0971 61.0028 56.7411C61.273 56.3843 61.4782 55.985 61.6187 55.5312C61.759 55.0772 61.824 54.613 61.824 54.1383C61.824 53.674 61.759 53.209 61.629 52.756C61.4887 52.3021 61.2946 51.9028 61.0244 51.5459C60.7542 51.1899 60.4086 50.9092 60.0093 50.6927C59.5988 50.4771 59.1241 50.3688 58.5733 50.3688ZM58.6382 56.6762H56.7698V51.6108H58.6382C59.0696 51.6108 59.4264 51.7295 59.7175 51.9782C59.9989 52.2268 60.2146 52.5395 60.3549 52.9179C60.4952 53.2956 60.5706 53.7061 60.5706 54.1383C60.5595 54.5809 60.4848 54.9802 60.3444 55.3588C60.2041 55.7364 59.9877 56.05 59.707 56.2977C59.4152 56.5463 59.0592 56.6762 58.6382 56.6762ZM66.5211 57.9286V50.3688H65.279V57.9286H66.5211ZM71.8766 57.9286V52.691L75.7968 57.9286H76.8666V50.3688H75.6132V55.6066L71.693 50.3688H70.6242V57.9286H71.8766ZM83.8962 53.7815L83.8852 55.0347H86.0342C85.9917 55.2825 85.9051 55.4991 85.7648 55.7044C85.6244 55.9088 85.4625 56.082 85.2676 56.2224C85.0736 56.3627 84.8571 56.4813 84.631 56.5575C84.3929 56.6329 84.1554 56.6762 83.918 56.6762C83.5829 56.6762 83.2701 56.6112 82.9887 56.4709C82.6977 56.341 82.4603 56.1686 82.2551 55.9521C82.0498 55.7469 81.8983 55.4991 81.7908 55.2288C81.6714 54.9585 81.6176 54.6779 81.6176 54.386V53.9002C81.6176 53.5874 81.6826 53.2956 81.8012 53.015C81.9199 52.7447 82.0931 52.497 82.2984 52.2917C82.5028 52.0865 82.7514 51.9133 83.032 51.7944C83.3135 51.6758 83.6045 51.6108 83.918 51.6108C84.2638 51.6108 84.5981 51.6862 84.9221 51.8491C85.246 52.0111 85.5162 52.2268 85.7215 52.5074L86.8231 51.8916C86.6612 51.6541 86.4776 51.4384 86.2611 51.2548C86.0454 51.0712 85.8081 50.9092 85.5595 50.7689C85.3109 50.639 85.0407 50.542 84.7601 50.4666C84.4794 50.3905 84.1987 50.3584 83.918 50.3584C83.4321 50.3584 82.9679 50.4554 82.5461 50.639C82.1148 50.8226 81.7363 51.0816 81.4236 51.4056C81.0997 51.7295 80.8399 52.1081 80.6561 52.529C80.4725 52.9612 80.3755 53.4143 80.3755 53.9002V54.3756C80.3755 54.8615 80.4725 55.3153 80.6561 55.7469C80.8399 56.1791 81.0884 56.5575 81.4124 56.8702C81.7259 57.1941 82.1035 57.4531 82.5357 57.6368C82.9679 57.8204 83.4321 57.9182 83.918 57.9182C84.3712 57.9182 84.8034 57.8316 85.2139 57.6696C85.6132 57.5076 85.9804 57.2807 86.2939 56.9889C86.6067 56.7082 86.8656 56.3739 87.0709 55.9738C87.2762 55.5849 87.3949 55.1638 87.4381 54.7108C87.471 54.4406 87.471 54.2457 87.4381 54.1383C87.4061 54.03 87.3948 53.9547 87.3948 53.9218L87.3838 53.7815H83.8957H83.8962ZM98.1178 53.1881L97.34 53.9867V50.3688H96.0876V57.9286H97.34V55.8231L98.3335 54.7749L101.11 57.9286H102.772L99.1866 53.8576L102.481 50.3688H100.774L98.1178 53.1881ZM107.318 57.9286V52.691L111.238 57.9286H112.308V50.3688H111.055V55.6066L107.135 50.3688H106.066V57.9286H107.318ZM119.36 50.3688C118.874 50.3688 118.409 50.4666 117.987 50.6502C117.556 50.8339 117.178 51.0928 116.865 51.4056C116.541 51.7295 116.281 52.1081 116.098 52.529C115.914 52.9612 115.817 53.4255 115.817 53.9114V54.386C115.817 54.8727 115.914 55.337 116.098 55.7581C116.281 56.1903 116.541 56.5679 116.865 56.8814C117.178 57.2054 117.556 57.4643 117.987 57.648C118.409 57.8316 118.874 57.9286 119.36 57.9286C119.845 57.9286 120.31 57.8316 120.742 57.648C121.163 57.4643 121.54 57.2054 121.864 56.8814C122.178 56.5679 122.437 56.1903 122.621 55.7581C122.804 55.337 122.901 54.8727 122.901 54.386V53.9114C122.901 53.4255 122.804 52.9612 122.621 52.529C122.437 52.1081 122.178 51.7295 121.864 51.4056C121.54 51.0928 121.163 50.8339 120.742 50.6502C120.31 50.4666 119.845 50.3688 119.36 50.3688ZM121.649 53.9114V54.386C121.649 54.6995 121.584 55.0018 121.465 55.272C121.346 55.5528 121.184 55.8014 120.979 56.0067C120.774 56.2119 120.525 56.3739 120.256 56.4925C119.975 56.6112 119.672 56.6762 119.36 56.6762C119.046 56.6762 118.744 56.6112 118.474 56.4925C118.193 56.3739 117.944 56.2119 117.74 56.0067C117.534 55.8014 117.361 55.5528 117.243 55.272C117.124 55.0018 117.059 54.6995 117.059 54.386V53.9114C117.059 53.5979 117.124 53.2956 117.243 53.015C117.361 52.7447 117.534 52.497 117.74 52.2917C117.944 52.0865 118.193 51.9133 118.474 51.7944C118.744 51.6758 119.046 51.6108 119.36 51.6108C119.672 51.6108 119.975 51.6758 120.256 51.7944C120.525 51.9133 120.774 52.0865 120.979 52.2917C121.184 52.497 121.346 52.7447 121.465 53.015C121.584 53.2956 121.649 53.5979 121.649 53.9114ZM129.208 56.0387L126.724 50.3688H125.374L128.689 57.9286H129.866L131.746 52.4858L133.624 57.9286H134.791L138.117 50.3688H136.767L134.272 56.0387L132.318 50.3688H131.163L129.208 56.0387ZM142.641 56.6762V50.3688H141.4V57.9286H146.94V56.6762H142.641ZM151.777 53.5225V51.6108H156.065V50.3688H150.525V57.9286H156.065V56.6762H151.777V54.7749H155.579V53.5225H151.777ZM163.009 50.3688H159.952V57.9286H163.009C163.548 57.9286 164.024 57.8204 164.423 57.6047C164.823 57.389 165.168 57.0971 165.438 56.7411C165.709 56.3843 165.914 55.985 166.054 55.5312C166.194 55.0772 166.259 54.613 166.259 54.1383C166.259 53.674 166.194 53.209 166.065 52.756C165.924 52.3021 165.73 51.9028 165.46 51.5459C165.19 51.1899 164.844 50.9092 164.445 50.6927C164.034 50.4771 163.56 50.3688 163.009 50.3688ZM163.074 56.6762H161.205V51.6108H163.074C163.505 51.6108 163.862 51.7295 164.153 51.9782C164.434 52.2268 164.65 52.5395 164.79 52.9179C164.931 53.2956 165.006 53.7061 165.006 54.1383C164.995 54.5809 164.92 54.9802 164.78 55.3588C164.64 55.7364 164.423 56.05 164.143 56.2977C163.851 56.5463 163.495 56.6762 163.074 56.6762ZM173.246 53.7815L173.235 55.0347H175.384C175.341 55.2825 175.255 55.4991 175.114 55.7044C174.974 55.9088 174.812 56.082 174.617 56.2224C174.423 56.3627 174.207 56.4813 173.98 56.5575C173.742 56.6329 173.505 56.6762 173.268 56.6762C172.933 56.6762 172.62 56.6112 172.338 56.4709C172.047 56.341 171.81 56.1686 171.605 55.9521C171.399 55.7469 171.248 55.4991 171.14 55.2288C171.021 54.9585 170.967 54.6779 170.967 54.386V53.9002C170.967 53.5874 171.032 53.2956 171.151 53.015C171.27 52.7447 171.443 52.497 171.648 52.2917C171.852 52.0865 172.101 51.9133 172.382 51.7944C172.663 51.6758 172.954 51.6108 173.268 51.6108C173.613 51.6108 173.948 51.6862 174.272 51.8491C174.596 52.0111 174.866 52.2268 175.071 52.5074L176.173 51.8916C176.011 51.6541 175.827 51.4384 175.611 51.2548C175.395 51.0712 175.158 50.9092 174.909 50.7689C174.661 50.639 174.39 50.542 174.11 50.4666C173.829 50.3905 173.548 50.3584 173.268 50.3584C172.782 50.3584 172.318 50.4554 171.896 50.639C171.464 50.8226 171.086 51.0816 170.773 51.4056C170.449 51.7295 170.189 52.1081 170.006 52.529C169.822 52.9612 169.725 53.4143 169.725 53.9002V54.3756C169.725 54.8615 169.822 55.3153 170.006 55.7469C170.189 56.1791 170.438 56.5575 170.762 56.8702C171.076 57.1941 171.453 57.4531 171.885 57.6368C172.318 57.8204 172.782 57.9182 173.268 57.9182C173.721 57.9182 174.153 57.8316 174.564 57.6696C174.963 57.5076 175.33 57.2807 175.644 56.9889C175.956 56.7082 176.215 56.3739 176.421 55.9738C176.626 55.5849 176.744 55.1638 176.788 54.7108C176.821 54.4406 176.821 54.2457 176.788 54.1383C176.756 54.03 176.744 53.9547 176.744 53.9218L176.733 53.7815H173.245H173.246ZM181.56 53.5225V51.6108H185.848V50.3688H180.308V57.9286H185.848V56.6762H181.56V54.7749H185.362V53.5225H181.56Z" fill="white"/>
<path fill-rule="evenodd" clip-rule="evenodd" d="M24.6634 12.4639L30.9817 1.03076H43.6068L30.5969 23.7964L24.2209 13.2632L24.6634 12.4639Z" fill="white"/>
<path fill-rule="evenodd" clip-rule="evenodd" d="M41.3778 43.4018H31.2286L23.8313 30.7421L30.3954 19.8804L44.1425 43.4018H41.3778Z" fill="white"/>
<path fill-rule="evenodd" clip-rule="evenodd" d="M184.4 43.4013H158.903V1.03076H170.141V32.7788H185.987V43.4013H184.4Z" fill="white"/>
<path fill-rule="evenodd" clip-rule="evenodd" d="M155.114 43.4013H129.618V1.03076H140.856V32.7788H156.702V43.4013H155.114Z" fill="white"/>
<path fill-rule="evenodd" clip-rule="evenodd" d="M123.029 43.4013H113.379V1.03076H124.617V43.4013H123.029Z" fill="white"/>
<path fill-rule="evenodd" clip-rule="evenodd" d="M108.335 43.4013H97.8665L88.8405 28.4612L86.965 30.827V43.4013H75.7271V1.03076H86.965V14.7952L97.3566 1.03076H111.058L96.5399 19.3175L111.145 43.4013H108.335Z" fill="white"/>
<path fill-rule="evenodd" clip-rule="evenodd" d="M72.9106 30.7277C72.9106 34.7926 71.5294 38.0117 68.7684 40.385C66.0816 42.6938 62.6203 43.8493 58.3882 43.8493C55.5823 43.8493 52.9412 43.4121 50.4705 42.5378C47.9952 41.6635 45.7044 40.3535 43.6033 38.6124L42.5842 37.7681L47.7125 28.6333L49.1649 29.7551C50.7674 30.9924 52.3346 31.9147 53.8613 32.5205C55.3318 33.1031 56.7865 33.3956 58.2202 33.3956C58.8868 33.3956 59.456 33.3349 59.9239 33.2156C60.3498 33.1047 60.7097 32.9458 60.9984 32.741C61.2317 32.576 61.401 32.3856 61.5045 32.1748C61.6163 31.9469 61.6725 31.65 61.6725 31.2871C61.6725 30.9728 61.6163 30.6954 61.5053 30.4592C61.3876 30.2072 61.1964 29.9665 60.9362 29.7401C60.5852 29.4394 60.022 29.0794 59.2482 28.664C58.4182 28.2186 57.3437 27.711 56.0269 27.1448C55.2155 26.8037 54.483 26.4865 53.8335 26.1948C53.1872 25.9016 52.6008 25.6249 52.0819 25.3654C51.5652 25.1067 51.0344 24.812 50.4937 24.4843C49.9591 24.1634 49.42 23.808 48.8756 23.4218C48.2892 23.002 47.7793 22.591 47.3519 22.1876C46.8854 21.7489 46.4858 21.3021 46.1588 20.8506C45.8453 20.418 45.5514 19.9231 45.2808 19.3697C45.0169 18.8305 44.7867 18.2621 44.5917 17.6667C44.3869 17.0399 44.2317 16.3702 44.1306 15.6645C44.0293 14.962 43.9782 14.2338 43.9782 13.4811C43.9782 11.5733 44.3142 9.83295 44.9839 8.26275C45.661 6.67532 46.6718 5.2851 48.0118 4.09429C49.3383 2.92229 50.8499 2.04134 52.5476 1.45415C54.2249 0.874553 56.0614 0.583496 58.0522 0.583496C60.4967 0.583496 62.8041 0.92845 64.9697 1.61613C67.1465 2.30745 69.1523 3.3393 70.9834 4.70708L72.0167 5.47867L67.5537 14.9642L66.0322 13.9677C64.5048 12.9673 63.0717 12.222 61.7416 11.7353C60.4675 11.2704 59.2753 11.0372 58.1647 11.0372C57.1089 11.0372 56.3261 11.2382 55.8169 11.6386C55.6055 11.8111 55.4496 11.9941 55.3565 12.1868C55.2658 12.3916 55.2163 12.6366 55.2163 12.9217C55.2163 13.5529 55.4263 14.0292 55.8432 14.3441C56.1955 14.6102 56.8098 14.9702 57.6796 15.4201C58.602 15.8963 59.8038 16.4691 61.2789 17.1328C65.3108 18.9362 68.2218 20.7719 70.0064 22.6374C70.985 23.6625 71.7168 24.8637 72.2012 26.2391C72.6736 27.5895 72.9106 29.084 72.9106 30.7277Z" fill="white"/>
<path fill-rule="evenodd" clip-rule="evenodd" d="M17.7489 43.4013H6.0497L15.2151 27.4384H0.718262V16.9232H15.7588L6.47256 1.03076H19.3865L31.5514 21.8504L18.642 43.4013H17.7489Z" fill="url(#paint0_linear_2715_294)"/>
<defs>
<linearGradient id="paint0_linear_2715_294" x1="30.4936" y1="44.6949" x2="0.718263" y2="1.13468" gradientUnits="userSpaceOnUse">
<stop stop-color="#88CB1A"/>
<stop offset="1" stop-color="#F2FF5B"/>
</linearGradient>
</defs>
</svg>
